<mxfile host="app.diagrams.net" agent="Mozilla/5.0 (Windows NT 10.0; Win64; x64) AppleWebKit/537.36 (KHTML, like Gecko) Chrome/131.0.0.0 Safari/537.36 Edg/131.0.0.0" version="25.0.1">
  <diagram id="C5RBs43oDa-KdzZeNtuy" name="Page-1">
    <mxGraphModel dx="860" dy="1736" grid="1" gridSize="10" guides="1" tooltips="1" connect="1" arrows="1" fold="1" page="1" pageScale="1" pageWidth="827" pageHeight="1169" math="0" shadow="0">
      <root>
        <mxCell id="WIyWlLk6GJQsqaUBKTNV-0" />
        <mxCell id="WIyWlLk6GJQsqaUBKTNV-1" parent="WIyWlLk6GJQsqaUBKTNV-0" />
        <mxCell id="Qlzn0dpiSX_P96ZjfsVF-6" value="" style="edgeStyle=orthogonalEdgeStyle;rounded=0;orthogonalLoop=1;jettySize=auto;html=1;" edge="1" parent="WIyWlLk6GJQsqaUBKTNV-1" source="Qlzn0dpiSX_P96ZjfsVF-0" target="Qlzn0dpiSX_P96ZjfsVF-5">
          <mxGeometry relative="1" as="geometry" />
        </mxCell>
        <mxCell id="Qlzn0dpiSX_P96ZjfsVF-0" value="Point p = new Point()" style="ellipse;whiteSpace=wrap;html=1;" vertex="1" parent="WIyWlLk6GJQsqaUBKTNV-1">
          <mxGeometry x="160" y="-80" width="120" height="80" as="geometry" />
        </mxCell>
        <mxCell id="Qlzn0dpiSX_P96ZjfsVF-8" value="" style="edgeStyle=orthogonalEdgeStyle;rounded=0;orthogonalLoop=1;jettySize=auto;html=1;" edge="1" parent="WIyWlLk6GJQsqaUBKTNV-1" source="Qlzn0dpiSX_P96ZjfsVF-5" target="Qlzn0dpiSX_P96ZjfsVF-7">
          <mxGeometry relative="1" as="geometry" />
        </mxCell>
        <mxCell id="Qlzn0dpiSX_P96ZjfsVF-5" value="&lt;code style=&quot;text-wrap-mode: nowrap; font-size: 11px;&quot;&gt;x = 5;&lt;/code&gt;&lt;code style=&quot;text-wrap-mode: nowrap; font-size: 11px;&quot;&gt;y = 7;&lt;/code&gt;" style="rounded=0;whiteSpace=wrap;html=1;" vertex="1" parent="WIyWlLk6GJQsqaUBKTNV-1">
          <mxGeometry x="160" y="30" width="120" height="60" as="geometry" />
        </mxCell>
        <mxCell id="Qlzn0dpiSX_P96ZjfsVF-10" value="" style="edgeStyle=orthogonalEdgeStyle;rounded=0;orthogonalLoop=1;jettySize=auto;html=1;" edge="1" parent="WIyWlLk6GJQsqaUBKTNV-1" source="Qlzn0dpiSX_P96ZjfsVF-7" target="Qlzn0dpiSX_P96ZjfsVF-9">
          <mxGeometry relative="1" as="geometry" />
        </mxCell>
        <mxCell id="Qlzn0dpiSX_P96ZjfsVF-11" value="true" style="edgeLabel;html=1;align=center;verticalAlign=middle;resizable=0;points=[];" vertex="1" connectable="0" parent="Qlzn0dpiSX_P96ZjfsVF-10">
          <mxGeometry x="0.24" y="3" relative="1" as="geometry">
            <mxPoint as="offset" />
          </mxGeometry>
        </mxCell>
        <mxCell id="Qlzn0dpiSX_P96ZjfsVF-31" style="edgeStyle=orthogonalEdgeStyle;rounded=0;orthogonalLoop=1;jettySize=auto;html=1;entryX=1;entryY=0.5;entryDx=0;entryDy=0;" edge="1" parent="WIyWlLk6GJQsqaUBKTNV-1" source="Qlzn0dpiSX_P96ZjfsVF-7" target="Qlzn0dpiSX_P96ZjfsVF-29">
          <mxGeometry relative="1" as="geometry">
            <Array as="points">
              <mxPoint x="500" y="160" />
              <mxPoint x="500" y="710" />
            </Array>
          </mxGeometry>
        </mxCell>
        <mxCell id="Qlzn0dpiSX_P96ZjfsVF-32" value="false" style="edgeLabel;html=1;align=center;verticalAlign=middle;resizable=0;points=[];" vertex="1" connectable="0" parent="Qlzn0dpiSX_P96ZjfsVF-31">
          <mxGeometry x="-0.3981" y="3" relative="1" as="geometry">
            <mxPoint x="-89" y="-73" as="offset" />
          </mxGeometry>
        </mxCell>
        <mxCell id="Qlzn0dpiSX_P96ZjfsVF-7" value="if(a &amp;gt; b &amp;amp;&amp;amp; b &amp;gt; c)" style="rhombus;whiteSpace=wrap;html=1;" vertex="1" parent="WIyWlLk6GJQsqaUBKTNV-1">
          <mxGeometry x="180" y="120" width="80" height="80" as="geometry" />
        </mxCell>
        <mxCell id="Qlzn0dpiSX_P96ZjfsVF-14" style="edgeStyle=orthogonalEdgeStyle;rounded=0;orthogonalLoop=1;jettySize=auto;html=1;exitX=0.5;exitY=1;exitDx=0;exitDy=0;entryX=0.5;entryY=0;entryDx=0;entryDy=0;" edge="1" parent="WIyWlLk6GJQsqaUBKTNV-1" source="Qlzn0dpiSX_P96ZjfsVF-9" target="Qlzn0dpiSX_P96ZjfsVF-12">
          <mxGeometry relative="1" as="geometry" />
        </mxCell>
        <mxCell id="Qlzn0dpiSX_P96ZjfsVF-16" style="edgeStyle=orthogonalEdgeStyle;rounded=0;orthogonalLoop=1;jettySize=auto;html=1;entryX=0.5;entryY=0;entryDx=0;entryDy=0;" edge="1" parent="WIyWlLk6GJQsqaUBKTNV-1" source="Qlzn0dpiSX_P96ZjfsVF-9" target="Qlzn0dpiSX_P96ZjfsVF-13">
          <mxGeometry relative="1" as="geometry" />
        </mxCell>
        <mxCell id="Qlzn0dpiSX_P96ZjfsVF-9" value="&lt;code&gt;a += 1&lt;/code&gt;，&lt;code&gt;x += 6&lt;/code&gt;" style="rounded=0;whiteSpace=wrap;html=1;" vertex="1" parent="WIyWlLk6GJQsqaUBKTNV-1">
          <mxGeometry x="160" y="230" width="120" height="60" as="geometry" />
        </mxCell>
        <mxCell id="Qlzn0dpiSX_P96ZjfsVF-18" value="" style="edgeStyle=orthogonalEdgeStyle;rounded=0;orthogonalLoop=1;jettySize=auto;html=1;" edge="1" parent="WIyWlLk6GJQsqaUBKTNV-1" source="Qlzn0dpiSX_P96ZjfsVF-12" target="Qlzn0dpiSX_P96ZjfsVF-17">
          <mxGeometry relative="1" as="geometry" />
        </mxCell>
        <mxCell id="Qlzn0dpiSX_P96ZjfsVF-19" value="true" style="edgeLabel;html=1;align=center;verticalAlign=middle;resizable=0;points=[];" vertex="1" connectable="0" parent="Qlzn0dpiSX_P96ZjfsVF-18">
          <mxGeometry x="-0.25" y="2" relative="1" as="geometry">
            <mxPoint as="offset" />
          </mxGeometry>
        </mxCell>
        <mxCell id="Qlzn0dpiSX_P96ZjfsVF-12" value="if(a == 10 || b &amp;gt; 20)" style="rhombus;whiteSpace=wrap;html=1;" vertex="1" parent="WIyWlLk6GJQsqaUBKTNV-1">
          <mxGeometry x="60" y="350" width="90" height="80" as="geometry" />
        </mxCell>
        <mxCell id="Qlzn0dpiSX_P96ZjfsVF-24" value="" style="edgeStyle=orthogonalEdgeStyle;rounded=0;orthogonalLoop=1;jettySize=auto;html=1;" edge="1" parent="WIyWlLk6GJQsqaUBKTNV-1" source="Qlzn0dpiSX_P96ZjfsVF-13" target="Qlzn0dpiSX_P96ZjfsVF-22">
          <mxGeometry relative="1" as="geometry" />
        </mxCell>
        <mxCell id="Qlzn0dpiSX_P96ZjfsVF-25" value="true" style="edgeLabel;html=1;align=center;verticalAlign=middle;resizable=0;points=[];" vertex="1" connectable="0" parent="Qlzn0dpiSX_P96ZjfsVF-24">
          <mxGeometry x="-0.1" y="2" relative="1" as="geometry">
            <mxPoint as="offset" />
          </mxGeometry>
        </mxCell>
        <mxCell id="Qlzn0dpiSX_P96ZjfsVF-33" style="edgeStyle=orthogonalEdgeStyle;rounded=0;orthogonalLoop=1;jettySize=auto;html=1;entryX=1;entryY=0.5;entryDx=0;entryDy=0;" edge="1" parent="WIyWlLk6GJQsqaUBKTNV-1" source="Qlzn0dpiSX_P96ZjfsVF-13" target="Qlzn0dpiSX_P96ZjfsVF-26">
          <mxGeometry relative="1" as="geometry">
            <Array as="points">
              <mxPoint x="440" y="390" />
              <mxPoint x="440" y="600" />
            </Array>
          </mxGeometry>
        </mxCell>
        <mxCell id="Qlzn0dpiSX_P96ZjfsVF-34" value="false" style="edgeLabel;html=1;align=center;verticalAlign=middle;resizable=0;points=[];" vertex="1" connectable="0" parent="Qlzn0dpiSX_P96ZjfsVF-33">
          <mxGeometry x="-0.2522" relative="1" as="geometry">
            <mxPoint as="offset" />
          </mxGeometry>
        </mxCell>
        <mxCell id="Qlzn0dpiSX_P96ZjfsVF-13" value="if(a &amp;lt; 10 || c == 20)" style="rhombus;whiteSpace=wrap;html=1;" vertex="1" parent="WIyWlLk6GJQsqaUBKTNV-1">
          <mxGeometry x="280" y="350" width="80" height="80" as="geometry" />
        </mxCell>
        <mxCell id="Qlzn0dpiSX_P96ZjfsVF-27" style="edgeStyle=orthogonalEdgeStyle;rounded=0;orthogonalLoop=1;jettySize=auto;html=1;entryX=0.5;entryY=0;entryDx=0;entryDy=0;" edge="1" parent="WIyWlLk6GJQsqaUBKTNV-1" source="Qlzn0dpiSX_P96ZjfsVF-17" target="Qlzn0dpiSX_P96ZjfsVF-26">
          <mxGeometry relative="1" as="geometry" />
        </mxCell>
        <mxCell id="Qlzn0dpiSX_P96ZjfsVF-17" value="&lt;code&gt;b += 1&lt;/code&gt;，&lt;code&gt;x = y + 4&lt;/code&gt;" style="rounded=0;whiteSpace=wrap;html=1;" vertex="1" parent="WIyWlLk6GJQsqaUBKTNV-1">
          <mxGeometry x="45" y="470" width="120" height="60" as="geometry" />
        </mxCell>
        <mxCell id="Qlzn0dpiSX_P96ZjfsVF-20" value="" style="endArrow=classic;html=1;rounded=0;exitX=1;exitY=0.5;exitDx=0;exitDy=0;entryX=0;entryY=0.5;entryDx=0;entryDy=0;" edge="1" parent="WIyWlLk6GJQsqaUBKTNV-1" source="Qlzn0dpiSX_P96ZjfsVF-12" target="Qlzn0dpiSX_P96ZjfsVF-13">
          <mxGeometry width="50" height="50" relative="1" as="geometry">
            <mxPoint x="390" y="430" as="sourcePoint" />
            <mxPoint x="440" y="380" as="targetPoint" />
          </mxGeometry>
        </mxCell>
        <mxCell id="Qlzn0dpiSX_P96ZjfsVF-21" value="false" style="edgeLabel;html=1;align=center;verticalAlign=middle;resizable=0;points=[];" vertex="1" connectable="0" parent="Qlzn0dpiSX_P96ZjfsVF-20">
          <mxGeometry x="0.0092" y="-2" relative="1" as="geometry">
            <mxPoint as="offset" />
          </mxGeometry>
        </mxCell>
        <mxCell id="Qlzn0dpiSX_P96ZjfsVF-28" style="edgeStyle=orthogonalEdgeStyle;rounded=0;orthogonalLoop=1;jettySize=auto;html=1;" edge="1" parent="WIyWlLk6GJQsqaUBKTNV-1" source="Qlzn0dpiSX_P96ZjfsVF-22">
          <mxGeometry relative="1" as="geometry">
            <mxPoint x="210" y="570" as="targetPoint" />
            <Array as="points">
              <mxPoint x="320" y="550" />
              <mxPoint x="211" y="550" />
            </Array>
          </mxGeometry>
        </mxCell>
        <mxCell id="Qlzn0dpiSX_P96ZjfsVF-22" value="&lt;code&gt;b += 2&lt;/code&gt;，&lt;code&gt;y = 4&lt;/code&gt;" style="rounded=0;whiteSpace=wrap;html=1;" vertex="1" parent="WIyWlLk6GJQsqaUBKTNV-1">
          <mxGeometry x="260" y="470" width="120" height="60" as="geometry" />
        </mxCell>
        <mxCell id="Qlzn0dpiSX_P96ZjfsVF-30" value="" style="edgeStyle=orthogonalEdgeStyle;rounded=0;orthogonalLoop=1;jettySize=auto;html=1;" edge="1" parent="WIyWlLk6GJQsqaUBKTNV-1" source="Qlzn0dpiSX_P96ZjfsVF-26" target="Qlzn0dpiSX_P96ZjfsVF-29">
          <mxGeometry relative="1" as="geometry" />
        </mxCell>
        <mxCell id="Qlzn0dpiSX_P96ZjfsVF-26" value="&lt;code&gt;a = a + b + 1&lt;/code&gt;，&lt;code&gt;y = x + y&lt;/code&gt;" style="rounded=0;whiteSpace=wrap;html=1;" vertex="1" parent="WIyWlLk6GJQsqaUBKTNV-1">
          <mxGeometry x="150" y="570" width="120" height="60" as="geometry" />
        </mxCell>
        <mxCell id="Qlzn0dpiSX_P96ZjfsVF-36" value="" style="edgeStyle=orthogonalEdgeStyle;rounded=0;orthogonalLoop=1;jettySize=auto;html=1;" edge="1" parent="WIyWlLk6GJQsqaUBKTNV-1" source="Qlzn0dpiSX_P96ZjfsVF-29" target="Qlzn0dpiSX_P96ZjfsVF-35">
          <mxGeometry relative="1" as="geometry" />
        </mxCell>
        <mxCell id="Qlzn0dpiSX_P96ZjfsVF-37" value="true" style="edgeLabel;html=1;align=center;verticalAlign=middle;resizable=0;points=[];" vertex="1" connectable="0" parent="Qlzn0dpiSX_P96ZjfsVF-36">
          <mxGeometry x="-0.2" y="1" relative="1" as="geometry">
            <mxPoint as="offset" />
          </mxGeometry>
        </mxCell>
        <mxCell id="Qlzn0dpiSX_P96ZjfsVF-40" style="edgeStyle=orthogonalEdgeStyle;rounded=0;orthogonalLoop=1;jettySize=auto;html=1;entryX=0;entryY=0.5;entryDx=0;entryDy=0;" edge="1" parent="WIyWlLk6GJQsqaUBKTNV-1" source="Qlzn0dpiSX_P96ZjfsVF-29" target="Qlzn0dpiSX_P96ZjfsVF-38">
          <mxGeometry relative="1" as="geometry">
            <Array as="points">
              <mxPoint x="100" y="710" />
              <mxPoint x="100" y="930" />
            </Array>
          </mxGeometry>
        </mxCell>
        <mxCell id="Qlzn0dpiSX_P96ZjfsVF-41" value="false" style="edgeLabel;html=1;align=center;verticalAlign=middle;resizable=0;points=[];" vertex="1" connectable="0" parent="Qlzn0dpiSX_P96ZjfsVF-40">
          <mxGeometry x="-0.1353" y="-1" relative="1" as="geometry">
            <mxPoint as="offset" />
          </mxGeometry>
        </mxCell>
        <mxCell id="Qlzn0dpiSX_P96ZjfsVF-29" value="if(a &amp;gt; 5 || c &amp;lt; 10)" style="rhombus;whiteSpace=wrap;html=1;" vertex="1" parent="WIyWlLk6GJQsqaUBKTNV-1">
          <mxGeometry x="170" y="670" width="80" height="80" as="geometry" />
        </mxCell>
        <mxCell id="Qlzn0dpiSX_P96ZjfsVF-39" value="" style="edgeStyle=orthogonalEdgeStyle;rounded=0;orthogonalLoop=1;jettySize=auto;html=1;" edge="1" parent="WIyWlLk6GJQsqaUBKTNV-1" source="Qlzn0dpiSX_P96ZjfsVF-35" target="Qlzn0dpiSX_P96ZjfsVF-38">
          <mxGeometry relative="1" as="geometry" />
        </mxCell>
        <mxCell id="Qlzn0dpiSX_P96ZjfsVF-35" value="&lt;code&gt;b = c + 5&lt;/code&gt;，&lt;code&gt;x += 1&lt;/code&gt;" style="rounded=0;whiteSpace=wrap;html=1;" vertex="1" parent="WIyWlLk6GJQsqaUBKTNV-1">
          <mxGeometry x="150" y="790" width="120" height="60" as="geometry" />
        </mxCell>
        <mxCell id="Qlzn0dpiSX_P96ZjfsVF-38" value="p.x = x; p.y = y;" style="ellipse;whiteSpace=wrap;html=1;" vertex="1" parent="WIyWlLk6GJQsqaUBKTNV-1">
          <mxGeometry x="150" y="890" width="120" height="80" as="geometry" />
        </mxCell>
      </root>
    </mxGraphModel>
  </diagram>
</mxfile>
